<svg width="20" height="20" viewBox="0 0 20 20" fill="none" xmlns="http://www.w3.org/2000/svg">
<rect width="20" height="20" rx="10" fill="#F3F5FA"/>
<path d="M12.2049 6.30799C12.6156 5.89734 13.2814 5.89734 13.692 6.30799C14.1027 6.71865 14.1027 7.38445 13.692 7.7951L7.79512 13.692C7.38446 14.1027 6.71866 14.1027 6.30801 13.692C5.89735 13.2814 5.89735 12.6156 6.30801 12.2049L12.2049 6.30799Z" fill="#8B8FA2"/>
<path d="M6.30799 7.7951C5.89734 7.38445 5.89734 6.71865 6.30799 6.30799C6.71865 5.89734 7.38445 5.89734 7.7951 6.30799L13.692 12.2049C14.1026 12.6156 14.1026 13.2814 13.692 13.692C13.2813 14.1027 12.6155 14.1027 12.2049 13.692L6.30799 7.7951Z" fill="#8B8FA2"/>
</svg>
