<svg width="14" height="14" viewBox="0 0 14 14" fill="none" xmlns="http://www.w3.org/2000/svg">
<path d="M12.2049 0.307992C12.6156 -0.102663 13.2814 -0.102663 13.692 0.307992C14.1027 0.718646 14.1027 1.38445 13.692 1.7951L1.79512 13.692C1.38446 14.1027 0.71866 14.1027 0.308005 13.692C-0.102649 13.2814 -0.102649 12.6156 0.308005 12.2049L12.2049 0.307992Z" fill="#363841"/>
<path d="M0.307991 1.7951C-0.102663 1.38445 -0.102664 0.718646 0.307991 0.307991C0.718645 -0.102664 1.38445 -0.102664 1.7951 0.307991L13.692 12.2049C14.1026 12.6156 14.1026 13.2814 13.692 13.692C13.2813 14.1027 12.6155 14.1027 12.2049 13.692L0.307991 1.7951Z" fill="#363841"/>
</svg>
