<svg width="16" height="16" viewBox="0 0 16 16" fill="none" xmlns="http://www.w3.org/2000/svg">
<path d="M8 16C3.58172 16 0 12.4183 0 8C0 3.58172 3.58172 0 8 0C12.4183 0 16 3.58172 16 8C16 12.4183 12.4183 16 8 16Z" fill="url(#paint0_linear_1047_3138)"/>
<path d="M8.0002 15.6475C3.77647 15.6475 0.352455 12.2235 0.352455 7.9998C0.352455 3.77606 3.77647 0.352051 8.0002 0.352051C12.2239 0.352051 15.6479 3.77606 15.6479 7.9998C15.6479 12.2235 12.2239 15.6475 8.0002 15.6475Z" fill="url(#paint1_linear_1047_3138)"/>
<path d="M1.86726 8.98634C1.32285 5.59886 3.62762 2.41145 7.01509 1.86704C10.4026 1.32264 13.59 3.6274 14.1344 7.01487C14.6788 10.4023 12.374 13.5898 8.98655 14.1342C5.59908 14.6786 2.41166 12.3738 1.86726 8.98634Z" fill="url(#paint2_linear_1047_3138)"/>
<path d="M7.99993 13.6544C4.87711 13.6544 2.34557 11.1229 2.34557 8.00007C2.34557 4.87725 4.87711 2.3457 7.99993 2.3457C11.1228 2.3457 13.6543 4.87725 13.6543 8.00007C13.6543 11.1229 11.1228 13.6544 7.99993 13.6544Z" fill="url(#paint3_linear_1047_3138)"/>
<path d="M13.5669 9.16455C13.5669 9.16455 12.6221 13.6176 8.03877 13.6176C3.45542 13.6176 2.44549 9.16455 2.44549 9.16455C2.44549 9.16455 3.64885 13.4567 8.03877 13.359C12.4267 13.2613 13.5669 9.16455 13.5669 9.16455Z" fill="white"/>
<path opacity="0.2" d="M2.67143 8.75971C2.61849 8.45836 2.59202 8.14683 2.59202 7.83123C2.59202 4.85846 5.00078 2.44971 7.97354 2.44971C10.9463 2.44971 13.353 4.85846 13.353 7.83123C13.353 8.18755 13.3184 8.53573 13.2512 8.87373C7.73328 9.55584 4.18225 9.07124 2.67143 8.76175V8.75971Z" fill="white"/>
<path opacity="0.2" d="M14.373 8.63721C14.3954 8.41323 14.4443 8.07727 14.4382 7.84515C14.373 4.37353 11.669 1.46795 7.96937 1.49239C4.76855 1.51478 1.78561 3.84413 1.52294 7.7352C1.50666 7.98768 1.55349 8.39083 1.58199 8.63721C1.16458 8.54965 0.704415 8.37047 0.604644 8.25645C0.598536 8.13428 0.596499 8.01211 0.596499 7.88994C0.596499 3.80137 3.91745 0.637207 8.00602 0.637207C12.0946 0.637207 15.4033 3.80137 15.4033 7.88994C15.4033 8.01618 15.3992 8.14039 15.3931 8.26459C15.0633 8.5578 14.6601 8.54762 14.373 8.63721Z" fill="white"/>
<path d="M7.42773 14.212C7.42773 14.212 3.51631 14.2222 2.15209 10.1011C3.84616 14.043 7.42773 14.212 7.42773 14.212Z" fill="white"/>
<path d="M15.0083 4.93371C15.0083 4.93371 13.2817 0.834957 9.67361 0.535645C12.9884 1.07726 15.0083 4.93371 15.0083 4.93371Z" fill="white"/>
<defs>
<linearGradient id="paint0_linear_1047_3138" x1="8" y1="0" x2="8" y2="16" gradientUnits="userSpaceOnUse">
<stop stop-color="#FFFBBF"/>
<stop offset="1" stop-color="#D47800"/>
</linearGradient>
<linearGradient id="paint1_linear_1047_3138" x1="8.0002" y1="0.352051" x2="8.0002" y2="15.6475" gradientUnits="userSpaceOnUse">
<stop stop-color="#F8FF94"/>
<stop offset="0.32" stop-color="#E9C300"/>
<stop offset="0.69" stop-color="#FFD215"/>
<stop offset="1" stop-color="#D4A000"/>
</linearGradient>
<linearGradient id="paint2_linear_1047_3138" x1="8.00144" y1="14.2123" x2="8.00144" y2="1.7878" gradientUnits="userSpaceOnUse">
<stop stop-color="#F8FF94"/>
<stop offset="0.5" stop-color="#E9C300"/>
<stop offset="1" stop-color="#D48000"/>
</linearGradient>
<linearGradient id="paint3_linear_1047_3138" x1="7.99993" y1="2.3457" x2="7.99993" y2="13.6544" gradientUnits="userSpaceOnUse">
<stop stop-color="#F8FF94"/>
<stop offset="0.32" stop-color="#E9CE00"/>
<stop offset="0.7" stop-color="#DDA400"/>
<stop offset="1" stop-color="#D48D00"/>
</linearGradient>
</defs>
</svg>
