<svg width="current" height="current" viewBox="0 0 19 18" fill="none" xmlns="http://www.w3.org/2000/svg">
<path d="M1.96515 5.99387L8.57909 0.849695C9.12076 0.428399 9.87924 0.428399 10.4209 0.849694L17.0349 5.99387C17.6438 6.46751 18 7.19578 18 7.96725V15.5C18 16.3284 17.3284 17 16.5 17H13.5C12.6716 17 12 16.3284 12 15.5V12C12 11.1716 11.3284 10.5 10.5 10.5H8.5C7.67157 10.5 7 11.1716 7 12V15.5C7 16.3284 6.32843 17 5.5 17H2.5C1.67157 17 1 16.3284 1 15.5V7.96725C1 7.19578 1.35618 6.46751 1.96515 5.99387Z" stroke="black"/>
</svg>
