<svg width="current" height="current" viewBox="0 0 20 20" fill="none" xmlns="http://www.w3.org/2000/svg">
<path d="M1.77212 7.66632L9.38606 1.74437L8.77212 0.955019L9.38606 1.74437C9.74717 1.46351 10.2528 1.46351 10.6139 1.74437L18.2279 7.66633C18.7151 8.04524 19 8.62785 19 9.24503V18C19 18.5523 18.5523 19 18 19H14.2222C13.6699 19 13.2222 18.5523 13.2222 18V13.7778C13.2222 12.6732 12.3268 11.7778 11.2222 11.7778H8.77778C7.67321 11.7778 6.77778 12.6732 6.77778 13.7778V18C6.77778 18.5523 6.33006 19 5.77778 19H2C1.44771 19 1 18.5523 1 18V9.24503C1 8.62785 1.28495 8.04524 1.77212 7.66632Z" stroke="current" stroke-width="2"/>
</svg>
