<svg width="100%" height="100%" viewBox="0 0 674 288" fill="none" xmlns="http://www.w3.org/2000/svg">
<path d="M60.2855 87.3216C60.2855 92.1728 58.2067 95.6379 51.9702 95.6379C45.3873 95.6379 43.655 92.1728 43.655 87.3216V45.7399C43.655 41.2352 45.3873 37.4235 51.9702 37.4235C58.2067 37.4235 60.2855 41.2352 60.2855 45.7399V87.3216ZM51.9702 0C16.284 0 2.07881 20.0978 2.07881 45.7399V87.3216C2.07881 113.31 16.284 133.061 51.9702 133.061C87.31 133.061 101.862 113.31 101.862 87.3216V45.7399C101.862 20.0978 87.31 0 51.9702 0Z" fill="#363841"/>
<path d="M272.568 60.2935V43.6608H282.962C287.466 43.6608 291.277 46.0864 291.277 51.9771C291.277 58.2144 287.466 60.2935 282.962 60.2935H272.568ZM316.916 81.0843C326.617 75.1936 332.853 64.4516 332.853 47.8189C332.853 18.7118 311.026 4.15816 282.962 4.15816H230.992V128.903H272.568V93.5588H279.844L294.395 128.903H339.09L316.916 81.0843Z" fill="#F292B7"/>
<path d="M0 240.085C0 269.538 18.7093 283.746 51.9702 283.746C84.8848 283.746 103.94 269.538 103.94 240.085C103.94 194.691 43.655 206.126 43.655 193.305C43.655 190.187 46.4268 188.108 51.9702 188.108C57.1673 188.108 60.2855 190.187 60.2855 193.305H101.862C101.862 164.198 81.4201 150.684 51.9702 150.684C22.174 150.684 2.07881 164.198 2.07881 193.305C2.07881 239.045 62.3643 226.224 62.3643 240.085C62.3643 244.589 58.2067 246.322 51.9702 246.322C45.3873 246.322 41.5762 244.589 41.5762 240.085H0Z" fill="#363841"/>
<path d="M174.742 4.15814V242.26C174.742 247.111 172.663 250.576 166.427 250.576C159.844 250.576 158.111 247.111 158.111 242.26V4.15814H116.535V242.26C116.535 268.249 130.74 288 166.427 288C201.766 288 216.318 268.249 216.318 242.26V4.15814H174.742Z" fill="#0066D9"/>
<path d="M272.568 210.978V194.345H282.962C287.466 194.345 291.277 196.77 291.277 202.661C291.277 208.898 287.466 210.978 282.962 210.978H272.568ZM316.916 231.768C326.617 225.878 332.853 215.136 332.853 198.503C332.853 169.396 311.026 154.842 282.962 154.842H230.992V279.587H272.568V244.243H279.844L294.395 279.587H339.09L316.916 231.768Z" fill="#00AC62"/>
<path d="M409.891 154.842L395.339 229.689L380.788 154.842H337.133L374.551 279.587H416.127L453.546 154.842H409.891Z" fill="#363841"/>
<path d="M551.372 192.266V154.842H459.904V279.587H551.372V242.164H501.48V233.848H549.293V200.582H501.48V192.266H551.372Z" fill="#363841"/>
<path d="M674 154.842H630.345L615.793 196.424L601.242 154.842H557.587L593.966 233.848V279.587H637.621V233.848L674 154.842Z" fill="#363841"/>
</svg>
