<svg width="current" height="current" viewBox="0 0 25 25" fill="none" xmlns="http://www.w3.org/2000/svg">
<rect width="24" height="24" transform="translate(0.25 0.5)" fill="white"/>
<path d="M4.75 5.5C4.75 4.67157 5.42157 4 6.25 4H18.25C19.0784 4 19.75 4.67157 19.75 5.5V19.5C19.75 20.3284 19.0784 21 18.25 21H6.25C5.42157 21 4.75 20.3284 4.75 19.5V5.5Z" stroke="black"/>
<circle cx="12.25" cy="9.5" r="1.5" stroke="black"/>
<mask id="path-3-inside-1_383_1953" fill="white">
<path d="M17.25 17.5C17.25 16.8434 17.1207 16.1932 16.8694 15.5866C16.6181 14.98 16.2498 14.4288 15.7855 13.9645C15.3212 13.5002 14.77 13.1319 14.1634 12.8806C13.5568 12.6293 12.9066 12.5 12.25 12.5C11.5934 12.5 10.9432 12.6293 10.3366 12.8806C9.72995 13.1319 9.17876 13.5002 8.71447 13.9645C8.25017 14.4288 7.88188 14.98 7.6306 15.5866C7.37933 16.1932 7.25 16.8434 7.25 17.5L12.25 17.5H17.25Z"/>
</mask>
<path d="M17.25 17.5C17.25 16.8434 17.1207 16.1932 16.8694 15.5866C16.6181 14.98 16.2498 14.4288 15.7855 13.9645C15.3212 13.5002 14.77 13.1319 14.1634 12.8806C13.5568 12.6293 12.9066 12.5 12.25 12.5C11.5934 12.5 10.9432 12.6293 10.3366 12.8806C9.72995 13.1319 9.17876 13.5002 8.71447 13.9645C8.25017 14.4288 7.88188 14.98 7.6306 15.5866C7.37933 16.1932 7.25 16.8434 7.25 17.5L12.25 17.5H17.25Z" stroke="black" stroke-width="2" mask="url(#path-3-inside-1_383_1953)"/>
</svg>
