<svg width="20" height="21" viewBox="0 0 20 21" fill="none" xmlns="http://www.w3.org/2000/svg">
<path d="M11 6.5C11 5.94772 10.5523 5.5 10 5.5C9.44772 5.5 9 5.94772 9 6.5V14.5C9 15.0523 9.44772 15.5 10 15.5C10.5523 15.5 11 15.0523 11 14.5V6.5Z" fill="#0066D9"/>
<path d="M14 11.5C14.5523 11.5 15 11.0523 15 10.5C15 9.94772 14.5523 9.5 14 9.5L6 9.5C5.44772 9.5 5 9.94771 5 10.5C5 11.0523 5.44772 11.5 6 11.5L14 11.5Z" fill="#0066D9"/>
<rect x="-1" y="1" width="18" height="18" rx="9" transform="matrix(-1 0 0 1 18 0.5)" stroke="#0066D9" stroke-width="2"/>
</svg>
