<svg width="21" height="20" viewBox="0 0 21 20" fill="none" xmlns="http://www.w3.org/2000/svg">
<path d="M11.5 6C11.5 5.44772 11.0523 5 10.5 5C9.94772 5 9.5 5.44772 9.5 6V14C9.5 14.5523 9.94772 15 10.5 15C11.0523 15 11.5 14.5523 11.5 14V6Z" fill="#F3F5FA"/>
<path d="M14.5 11C15.0523 11 15.5 10.5523 15.5 10C15.5 9.44772 15.0523 9 14.5 9L6.5 9C5.94772 9 5.5 9.44771 5.5 10C5.5 10.5523 5.94772 11 6.5 11L14.5 11Z" fill="#F3F5FA"/>
<rect x="-1" y="1" width="18" height="18" rx="9" transform="matrix(-1 0 0 1 18.5 0)" stroke="#F3F5FA" stroke-width="2"/>
</svg>
