<svg width="16" height="16" viewBox="0 0 16 16" fill="none" xmlns="http://www.w3.org/2000/svg">
<path fill-rule="evenodd" clip-rule="evenodd" d="M7.5 13C10.5376 13 13 10.5376 13 7.5C13 4.46243 10.5376 2 7.5 2C4.46243 2 2 4.46243 2 7.5C2 10.5376 4.46243 13 7.5 13ZM7.5 15C11.6421 15 15 11.6421 15 7.5C15 3.35786 11.6421 0 7.5 0C3.35786 0 0 3.35786 0 7.5C0 11.6421 3.35786 15 7.5 15Z" fill="#363841"/>
<path d="M12 13L13.4142 11.5858L15.7071 13.8787C16.0976 14.2692 16.0976 14.9024 15.7071 15.2929C15.3166 15.6834 14.6834 15.6834 14.2929 15.2929L12 13Z" fill="#363841"/>
</svg>
