<svg width="18" height="19" viewBox="0 0 18 19" fill="none" xmlns="http://www.w3.org/2000/svg">
<path fill-rule="evenodd" clip-rule="evenodd" d="M3 10C2.44772 10 2 10.4477 2 11V16C2 16.5523 2.44772 17 3 17H15C15.5523 17 16 16.5523 16 16V11C16 10.4477 15.5523 10 15 10H13.5714C13.0191 10 12.5714 9.55229 12.5714 9C12.5714 8.44772 13.0191 8 13.5714 8H15C16.6569 8 18 9.34315 18 11V16C18 17.6569 16.6569 19 15 19H3C1.34315 19 0 17.6569 0 16V11C0 9.34315 1.34315 8 3 8H4.42857C4.98086 8 5.42857 8.44772 5.42857 9C5.42857 9.55229 4.98086 10 4.42857 10H3Z" fill="#606374"/>
<path fill-rule="evenodd" clip-rule="evenodd" d="M9 0.75L13.6 4.2C14.0418 4.53137 14.1314 5.15817 13.8 5.6C13.4686 6.04183 12.8418 6.13137 12.4 5.8L9 3.25L5.6 5.8C5.15817 6.13137 4.53137 6.04183 4.2 5.6C3.86863 5.15817 3.95817 4.53137 4.4 4.2L9 0.75Z" fill="#606374"/>
<path d="M8 4C8 3.44772 8.44772 3 9 3C9.55228 3 10 3.44772 10 4V13C10 13.5523 9.55228 14 9 14C8.44772 14 8 13.5523 8 13V4Z" fill="#606374"/>
</svg>
