<svg width="current" height="current" viewBox="0 0 25 25" fill="none" xmlns="http://www.w3.org/2000/svg">
<rect width="24" height="24" transform="translate(0.75 0.5)" fill="none"/>
<path d="M5.25 5.5C5.25 4.67157 5.92157 4 6.75 4H18.75C19.5784 4 20.25 4.67157 20.25 5.5V19.5C20.25 20.3284 19.5784 21 18.75 21H6.75C5.92157 21 5.25 20.3284 5.25 19.5V5.5Z" stroke="black"/>
<rect x="7.75" y="7.5" width="1" height="1" rx="0.5" fill="#363841"/>
<rect x="9.75" y="7.5" width="8" height="1" rx="0.5" fill="#363841"/>
<rect x="7.75" y="11.5" width="1" height="1" rx="0.5" fill="#363841"/>
<rect x="9.75" y="11.5" width="8" height="1" rx="0.5" fill="#363841"/>
<rect x="7.75" y="15.5" width="1" height="1" rx="0.5" fill="#363841"/>
<rect x="9.75" y="15.5" width="8" height="1" rx="0.5" fill="#363841"/>
</svg>
